# xmcd
#
# Track frame offsets:
#	225
#	14113
#	25790
#	36460
#	48935
#	60860
#	75055
#	88743
#	100525
#	112293
#	123738
#
# Disc length: 1801 seconds
#
# Revision: 0
# Processed by: cddbd v1.5.2PL0 Copyright (c) Steve Scherf et al.
# Submitted via: dBpowerAMP V4.0
#
DISCID=8607060b
DTITLE=Willie Nelson - The Hungry Years
DYEAR=1900
DGENRE=Country
TTITLE0=A Moment Isn't Very Long
TTITLE1=Some Other Time
TTITLE2=Blame It On The Times
TTITLE3=Shelter Of Your Arms
TTITLE4=End Of Understanding
TTITLE5=Will You Remember Me?
TTITLE6=Everything But You
TTITLE7=I Hope So
TTITLE8=Is There Something On Your Mind?
TTITLE9=Night Life
TTITLE10=What A Way To Live
EXTD=
EXTT0=
EXTT1=
EXTT2=
EXTT3=
EXTT4=
EXTT5=
EXTT6=
EXTT7=
EXTT8=
EXTT9=
EXTT10=
PLAYORDER=
